<svg xmlns="http://www.w3.org/2000/svg" width="28" height="28" viewBox="0 0 28 28" fill="none">
  <g clip-path="url(#clip0_2_66)">
    <mask id="mask0_2_66" style="mask-type:luminance" maskUnits="userSpaceOnUse" x="0" y="0" width="28" height="28">
      <path d="M28 14C28 6.26801 21.732 0 14 0C6.26801 0 0 6.26801 0 14C0 21.732 6.26801 28 14 28C21.732 28 28 21.732 28 14Z" fill="white"/>
    </mask>
    <g mask="url(#mask0_2_66)">
      <path d="M28 14C28 6.26801 21.732 0 14 0C6.26801 0 0 6.26801 0 14C0 21.732 6.26801 28 14 28C21.732 28 28 21.732 28 14Z" fill="#236192"/>
      <mask id="mask1_2_66" style="mask-type:luminance" maskUnits="userSpaceOnUse" x="-2" y="-2" width="32" height="32">
        <path d="M-2 -2H30V30H-2V-2Z" fill="white"/>
      </mask>
      <g mask="url(#mask1_2_66)">
        <path fill-rule="evenodd" clip-rule="evenodd" d="M12.4492 19.8716C12.6415 19.8716 12.7976 20.0221 12.7976 20.2073C12.7976 20.3927 12.6415 20.5429 12.4492 20.5429C12.2566 20.5429 12.1005 20.3927 12.1005 20.2073C12.1005 20.0221 12.2566 19.8716 12.4492 19.8716ZM11.8234 7.45685C12.0158 7.45685 12.1718 7.6073 12.1718 7.7925C12.1718 7.97793 12.0158 8.12816 11.8234 8.12816C11.6308 8.12816 11.4745 7.97793 11.4745 7.7925C11.4745 7.6073 11.6308 7.45685 11.8234 7.45685ZM12.4492 8.30742H14.0633H18.6292L21.9303 11.4858V16.5144L18.6294 19.6926H14.6804H13.0749C12.9239 19.5226 12.6996 19.4148 12.4489 19.4148C11.9945 19.4148 11.6258 19.7698 11.6258 20.2073C11.6258 20.645 11.9945 21 12.4489 21C12.6996 21 12.9237 20.8922 13.0747 20.7224H14.0633H18.9623H19.0724L23 16.9411V16.7399V11.0593L19.072 7.2778H18.8938H14.0633H12.4492C12.2981 7.10778 12.0736 7 11.8234 7C11.3687 7 11 7.35501 11 7.7925C11 8.23022 11.3687 8.58523 11.8234 8.58523C12.0736 8.58523 12.2981 8.47745 12.4492 8.30742Z" fill="#FFD603"/>
        <path fill-rule="evenodd" clip-rule="evenodd" d="M9.82052 17.8519C10.0124 17.8519 10.1679 18.005 10.1679 18.1935C10.1679 18.3822 10.0124 18.5351 9.82052 18.5351C9.6286 18.5351 9.4731 18.3822 9.4731 18.1935C9.4731 18.005 9.6286 17.8519 9.82052 17.8519ZM9.88563 9.46494C10.0776 9.46494 10.2331 9.61784 10.2331 9.80655C10.2331 9.99525 10.0776 10.1481 9.88563 10.1481C9.69371 10.1481 9.53821 9.99525 9.53821 9.80655C9.53821 9.61784 9.69371 9.46494 9.88563 9.46494ZM18.3347 9.22676H10.4837V9.25475C10.3341 9.09805 10.1215 9 9.88563 9C9.43257 9 9.06534 9.36108 9.06534 9.80655C9.06534 10.252 9.43257 10.6133 9.88563 10.6133C10.1611 10.6133 10.4047 10.4797 10.5538 10.2748H17.893L19.9341 12.2815V15.6628L17.8932 17.6694H10.4439C10.2936 17.4966 10.07 17.3867 9.82029 17.3867C9.36746 17.3867 9 17.748 9 18.1935C9 18.6389 9.36746 19 9.82029 19C10.07 19 10.2936 18.8905 10.4441 18.7175H18.3344H18.3347H18.3349V18.7173L21 16.0971V15.7709V12.1767V11.8476L18.3347 9.22699V9.22676Z" fill="#FFD603"/>
        <path fill-rule="evenodd" clip-rule="evenodd" d="M4.83592 13.6792C4.6404 13.6792 4.48198 13.8376 4.48198 14.0325C4.48198 14.2277 4.6404 14.3859 4.83592 14.3859C5.03145 14.3859 5.18987 14.2277 5.18987 14.0325C5.18987 13.8376 5.03145 13.6792 4.83592 13.6792ZM6.9139 15.8124C6.71837 15.8124 6.55996 15.9706 6.55996 16.1657C6.55996 16.3609 6.71837 16.5191 6.9139 16.5191C7.10943 16.5191 7.26785 16.3609 7.26785 16.1657C7.26785 15.9706 7.10943 15.8124 6.9139 15.8124ZM7.11685 11.4809C6.92132 11.4809 6.76314 11.6391 6.76314 11.8343C6.76314 12.0294 6.92132 12.1876 7.11685 12.1876C7.31238 12.1876 7.4708 12.0294 7.4708 11.8343C7.4708 11.6391 7.31238 11.4809 7.11685 11.4809ZM16.1218 13.6792C15.9263 13.6792 15.7679 13.8376 15.7679 14.0325C15.7679 14.2277 15.9263 14.3859 16.1218 14.3859C16.3173 14.3859 16.4758 14.2277 16.4758 14.0325C16.4758 13.8376 16.3173 13.6792 16.1218 13.6792ZM17.2078 16.7726V16.7729H7.48703C7.33743 16.9136 7.13564 17 6.9139 17C6.45234 17 6.07798 16.6265 6.07798 16.1657C6.07798 15.7052 6.45234 15.3315 6.9139 15.3315C7.1978 15.3315 7.44853 15.4727 7.59953 15.6888H10.2687L9.15239 14.5746H5.47122C5.3179 14.7536 5.09013 14.867 4.83592 14.867C4.37459 14.867 4 14.4933 4 14.0325C4 13.572 4.37459 13.1983 4.83592 13.1983C5.09013 13.1983 5.3179 13.3117 5.47122 13.4907H9.60236L11.8047 15.6888H17.1076L17.9143 14.8835V13.1818L17.1071 12.3763H12.1855L13.3021 13.4907H15.4865C15.6398 13.3117 15.8676 13.1983 16.1218 13.1983C16.5832 13.1983 16.9577 13.572 16.9577 14.0325C16.9577 14.4933 16.5832 14.867 16.1218 14.867C15.8676 14.867 15.6398 14.7536 15.4865 14.5746H12.8523L10.6498 12.3763H7.75215C7.59883 12.5553 7.37129 12.6687 7.11685 12.6687C6.65552 12.6687 6.28093 12.295 6.28093 11.8343C6.28093 11.3735 6.65552 11 7.11685 11C7.37129 11 7.59883 11.1135 7.75215 11.2922H17.5404V11.2924H17.5571L19 12.7331V13.7996V14.2657V14.9814V15.3324L17.5575 16.7726H17.2078Z" fill="#FFD603"/>
      </g>
    </g>
  </g>
  <defs>
    <clipPath id="clip0_2_66">
      <rect width="28" height="28" fill="white"/>
    </clipPath>
  </defs>
</svg>