<svg xmlns="http://www.w3.org/2000/svg" width="28" height="28" viewBox="0 0 28 28" fill="none">
  <g clip-path="url(#clip0_1_49)">
    <mask id="mask0_1_49" style="mask-type:luminance" maskUnits="userSpaceOnUse" x="0" y="0" width="28" height="28">
      <path d="M28 14C28 6.26801 21.732 0 14 0C6.26801 0 0 6.26801 0 14C0 21.732 6.26801 28 14 28C21.732 28 28 21.732 28 14Z" fill="white"/>
    </mask>
    <g mask="url(#mask0_1_49)">
      <path d="M28 14C28 6.26801 21.732 0 14 0C6.26801 0 0 6.26801 0 14C0 21.732 6.26801 28 14 28C21.732 28 28 21.732 28 14Z" fill="white"/>
      <mask id="mask1_1_49" style="mask-type:luminance" maskUnits="userSpaceOnUse" x="-2" y="-2" width="32" height="32">
        <path d="M-2 -2H30V30H-2V-2Z" fill="white"/>
      </mask>
      <g mask="url(#mask1_1_49)">
        <path d="M10.45 23C11.9412 23 13.15 21.7912 13.15 20.3C13.15 18.8088 11.9412 17.6 10.45 17.6C8.95883 17.6 7.75 18.8088 7.75 20.3C7.75 21.7912 8.95883 23 10.45 23Z" fill="#FC5C50"/>
        <path d="M10.3553 11.3C8.91642 11.3 7.75 12.4522 7.75 13.8734V17.6C8.26013 16.902 9.09689 16.4468 10.0426 16.4468H15.0448C16.4836 16.4468 17.65 15.2946 17.65 13.8734C17.65 13.8681 17.65 13.8627 17.65 13.8574L17.65 11.3H10.3553Z" fill="#2063F8"/>
        <path d="M10.45 5C8.95883 5 7.75 6.15214 7.75 7.57337V11.3C8.27868 10.602 9.14587 10.1468 10.126 10.1468H18.55C20.0412 10.1468 21.25 8.9946 21.25 7.57337C21.25 7.56805 21.25 7.56274 21.25 7.55743L21.25 5H10.45Z" fill="#02B2FE"/>
      </g>
    </g>
  </g>
  <defs>
    <clipPath id="clip0_1_49">
      <rect width="28" height="28" fill="white"/>
    </clipPath>
  </defs>
</svg>