<svg xmlns="http://www.w3.org/2000/svg" width="28" height="28" viewBox="0 0 28 28" fill="none">
  <g clip-path="url(#clip0_3_125)">
    <mask id="mask0_3_125" style="mask-type:luminance" maskUnits="userSpaceOnUse" x="0" y="0" width="28" height="28">
      <path d="M28 14C28 6.26801 21.732 0 14 0C6.26801 0 0 6.26801 0 14C0 21.732 6.26801 28 14 28C21.732 28 28 21.732 28 14Z" fill="white"/>
    </mask>
    <g mask="url(#mask0_3_125)">
      <path d="M28 14C28 6.26801 21.732 0 14 0C6.26801 0 0 6.26801 0 14C0 21.732 6.26801 28 14 28C21.732 28 28 21.732 28 14Z" fill="#EB2133"/>
      <mask id="mask1_3_125" style="mask-type:luminance" maskUnits="userSpaceOnUse" x="-2" y="-2" width="32" height="32">
        <path d="M-2 -2H30V30H-2V-2Z" fill="white"/>
      </mask>
      <g mask="url(#mask1_3_125)">
        <path d="M8.36486 17.4578H6V13.055L7.56653 14.7969C8.07866 15.3676 8.36486 16.094 8.36486 16.8574V17.4578ZM20.0611 17.4578H22.426V13.055L20.8594 14.7969C20.3473 15.3676 20.0686 16.094 20.0686 16.8574V17.4578H20.0611ZM6.1205 8.11859L6.13556 8H6.2636C7.1749 8 8.04101 8.39284 8.63599 9.06734L13.8101 14.9303C14.405 15.6048 14.6762 16.5016 14.5557 17.3911L14.5406 17.5097H14.4201C13.5013 17.5171 12.6276 17.1242 12.0251 16.4423L6.85858 10.6016C6.25607 9.91972 5.98494 9.01545 6.1205 8.11859ZM17.2594 11.8543L14.5858 8.88945C14.0209 8.26683 13.1699 7.97035 12.3339 8.11859C12.0628 8.91909 12.236 9.80113 12.8008 10.4312L17.2293 15.4417L17.2594 15.4121L17.2896 15.4417L21.718 10.4312C22.2829 9.79372 22.4561 8.91168 22.185 8.11859C21.349 7.97035 20.4979 8.25942 19.9331 8.88945L17.2594 11.8543Z" fill="white"/>
        <path d="M6.34569 20.0735C6.33824 20.0661 6.33078 20.0511 6.33078 20.0362V18.8281C6.33078 18.8132 6.33824 18.8058 6.34569 18.7909C6.35315 18.7834 6.36807 18.7759 6.38298 18.7759H6.68127C6.71856 18.7759 6.74093 18.7909 6.75585 18.8207L7.06905 19.3427V18.8281C7.06905 18.8132 7.07651 18.8058 7.08397 18.7909C7.09143 18.7834 7.10634 18.7759 7.12126 18.7759H7.45684C7.47175 18.7759 7.47921 18.7834 7.49412 18.7909C7.50158 18.7983 7.50904 18.8132 7.50904 18.8281V20.0362C7.50904 20.0511 7.50158 20.0586 7.49412 20.0735C7.48666 20.081 7.47175 20.0884 7.45684 20.0884H7.15854C7.13617 20.0884 7.12126 20.081 7.10634 20.0735C7.09143 20.0661 7.08397 20.0511 7.07651 20.0437L6.7633 19.5664V20.0362C6.7633 20.0511 6.75585 20.0586 6.74839 20.0735C6.74093 20.081 6.72602 20.0884 6.7111 20.0884H6.37552C6.36807 20.0884 6.35315 20.081 6.34569 20.0735Z" fill="white"/>
        <path d="M7.8297 20.0735C7.82225 20.0661 7.81479 20.0511 7.81479 20.0362V18.8281C7.81479 18.8132 7.82225 18.8058 7.8297 18.7909C7.83716 18.7834 7.85208 18.7759 7.86699 18.7759H8.82898C8.8439 18.7759 8.85136 18.7834 8.86627 18.7909C8.87373 18.7983 8.88119 18.8132 8.88119 18.8281V19.0891C8.88119 19.1041 8.87373 19.1115 8.86627 19.1264C8.85881 19.1339 8.8439 19.1414 8.82898 19.1414H8.26223V19.2607H8.78424C8.79916 19.2607 8.80661 19.2681 8.82153 19.2756C8.82898 19.283 8.83644 19.298 8.83644 19.3129V19.559C8.83644 19.5739 8.82898 19.5813 8.82153 19.5962C8.81407 19.6037 8.79916 19.6112 8.78424 19.6112H8.26223V19.7305H8.83644C8.85136 19.7305 8.85881 19.7379 8.87373 19.7454C8.88119 19.7528 8.88864 19.7678 8.88864 19.7827V20.0437C8.88864 20.0586 8.88119 20.0661 8.87373 20.081C8.86627 20.0884 8.85136 20.0959 8.83644 20.0959H7.85953C7.84462 20.0884 7.83716 20.081 7.8297 20.0735Z" fill="white"/>
        <path d="M9.29879 20.0661C9.28388 20.0511 9.27642 20.0362 9.26896 20.0139L9.09744 18.8207V18.8132C9.09744 18.7983 9.1049 18.7909 9.11236 18.7834C9.11981 18.7759 9.12727 18.7685 9.14219 18.7685H9.49268C9.51505 18.7685 9.52997 18.7685 9.54488 18.7834C9.55234 18.7909 9.5598 18.8058 9.5598 18.8207L9.62691 19.3502L9.70149 19.119C9.7164 19.0817 9.73877 19.0668 9.7686 19.0668H9.96249C9.99232 19.0668 10.0147 19.0817 10.0296 19.119L10.1042 19.3502L10.1713 18.8207C10.1713 18.7983 10.1788 18.7909 10.1862 18.7834C10.1937 18.7759 10.216 18.7685 10.2384 18.7685H10.5889C10.6038 18.7685 10.6113 18.7759 10.6187 18.7834C10.6262 18.7909 10.6337 18.7983 10.6337 18.8132V18.8207L10.4621 20.0139C10.4621 20.0362 10.4472 20.0511 10.4323 20.0661C10.4174 20.081 10.395 20.0884 10.3726 20.0884H10.1042C10.0818 20.0884 10.0669 20.081 10.052 20.0735C10.0371 20.0661 10.0296 20.0511 10.0296 20.0362L9.873 19.6559L9.7164 20.0362C9.70894 20.0511 9.70149 20.0586 9.69403 20.0735C9.67911 20.0884 9.6642 20.0884 9.64183 20.0884H9.37336C9.32862 20.0884 9.31371 20.081 9.29879 20.0661Z" fill="white"/>
        <path d="M10.8648 20.0735C10.8574 20.0661 10.8499 20.0511 10.8499 20.0362V18.8281C10.8499 18.8132 10.8574 18.8058 10.8648 18.7909C10.8723 18.7834 10.8872 18.7759 10.9021 18.7759H11.2004C11.2377 18.7759 11.2601 18.7909 11.2824 18.8281L11.5509 19.2756L11.8194 18.8281C11.8417 18.7909 11.8641 18.7759 11.9014 18.7759H12.1997C12.2146 18.7759 12.2221 18.7834 12.237 18.7909C12.2444 18.7983 12.2519 18.8132 12.2519 18.8281V20.0362C12.2519 20.0511 12.2444 20.0586 12.237 20.0735C12.2295 20.081 12.2146 20.0884 12.1997 20.0884H11.8641C11.8492 20.0884 11.8417 20.081 11.8268 20.0735C11.8194 20.0661 11.8119 20.0511 11.8119 20.0362V19.5217L11.6851 19.723C11.6777 19.7379 11.6702 19.7454 11.6553 19.7603C11.6478 19.7678 11.6329 19.7752 11.618 19.7752H11.4838C11.4689 19.7752 11.454 19.7678 11.4465 19.7603C11.439 19.7529 11.4241 19.7379 11.4167 19.723L11.2899 19.5217V20.0362C11.2899 20.0511 11.2824 20.0586 11.275 20.0735C11.2675 20.081 11.2526 20.0884 11.2377 20.0884H10.9021C10.8872 20.0884 10.8797 20.081 10.8648 20.0735Z" fill="white"/>
        <path d="M12.5651 20.0735C12.5576 20.0661 12.5502 20.0511 12.5502 20.0362V18.8281C12.5502 18.8132 12.5576 18.8058 12.5651 18.7909C12.5725 18.7834 12.5875 18.7759 12.6024 18.7759H13.5569C13.5718 18.7759 13.5793 18.7834 13.5942 18.7909C13.6017 18.7983 13.6091 18.8132 13.6091 18.8281V19.0891C13.6091 19.1041 13.6017 19.1115 13.5942 19.1264C13.5867 19.1339 13.5718 19.1414 13.5569 19.1414H12.9976V19.2607H13.5196C13.5345 19.2607 13.542 19.2681 13.5569 19.2756C13.5644 19.283 13.5718 19.298 13.5718 19.3129V19.559C13.5718 19.5739 13.5644 19.5813 13.5569 19.5962C13.5495 19.6037 13.5345 19.6112 13.5196 19.6112H12.9976V19.7305H13.5718C13.5867 19.7305 13.5942 19.7379 13.6091 19.7454C13.6166 19.7528 13.624 19.7678 13.624 19.7827V20.0437C13.624 20.0586 13.6166 20.0661 13.6091 20.081C13.6017 20.0884 13.5867 20.0959 13.5718 20.0959H12.5949C12.5875 20.0884 12.5725 20.081 12.5651 20.0735Z" fill="white"/>
        <path d="M13.9074 20.0735C13.8999 20.0661 13.8925 20.0511 13.8925 20.0362V18.8281C13.8925 18.8132 13.8999 18.8058 13.9074 18.7909C13.9149 18.7834 13.9298 18.7759 13.9447 18.7759H14.4816C14.6009 18.7759 14.7053 18.7983 14.7948 18.8356C14.8843 18.8729 14.9589 18.9325 15.0185 19.0146C15.0707 19.0891 15.1006 19.1861 15.108 19.2905C15.108 19.3576 15.108 19.4098 15.108 19.4322C15.108 19.4546 15.108 19.4993 15.108 19.5664C15.1006 19.7379 15.0409 19.8647 14.9365 19.9542C14.8321 20.0437 14.683 20.081 14.4965 20.081H13.9447C13.9298 20.0884 13.9149 20.081 13.9074 20.0735ZM14.4816 19.723C14.5264 19.723 14.5636 19.7081 14.586 19.6857C14.6158 19.6634 14.6308 19.6186 14.6308 19.5739C14.6308 19.5366 14.6382 19.4918 14.6382 19.4322C14.6382 19.3725 14.6382 19.3278 14.6308 19.2905C14.6308 19.2383 14.6158 19.201 14.586 19.1786C14.5562 19.1563 14.5189 19.1414 14.4742 19.1414H14.3623V19.723H14.4816Z" fill="white"/>
        <path d="M15.384 20.0735C15.3765 20.0661 15.369 20.0511 15.369 20.0362V18.8281C15.369 18.8132 15.3765 18.8058 15.384 18.7909C15.3914 18.7834 15.4063 18.7759 15.4213 18.7759H15.8016C15.8165 18.7759 15.8239 18.7834 15.8389 18.7909C15.8463 18.7983 15.8538 18.8132 15.8538 18.8281V20.0362C15.8538 20.0511 15.8463 20.0586 15.8389 20.0735C15.8314 20.081 15.8165 20.0884 15.8016 20.0884H15.4213C15.4063 20.0884 15.3989 20.081 15.384 20.0735Z" fill="white"/>
        <path d="M16.0626 20.0735C16.0551 20.0661 16.0477 20.0586 16.0477 20.0437C16.0477 20.0362 16.0477 20.0362 16.0477 20.0288L16.4653 18.8356C16.4727 18.8207 16.4802 18.8058 16.4951 18.7909C16.51 18.7759 16.5249 18.7685 16.5548 18.7685H16.9649C16.9873 18.7685 17.0097 18.7759 17.0246 18.7909C17.0395 18.8058 17.0469 18.8207 17.0544 18.8356L17.472 20.0288C17.472 20.0288 17.472 20.0362 17.472 20.0437C17.472 20.0586 17.4646 20.0661 17.4571 20.0735C17.4496 20.081 17.4422 20.0884 17.4273 20.0884H17.0842C17.047 20.0884 17.0246 20.0735 17.0097 20.0437L16.9649 19.9169H16.5622L16.5175 20.0437C16.5026 20.0735 16.4802 20.0884 16.4429 20.0884H16.0924C16.085 20.0884 16.07 20.081 16.0626 20.0735ZM16.6517 19.5515H16.8605L16.7561 19.201L16.6517 19.5515Z" fill="white"/>
        <path d="M17.651 20.0735C17.6435 20.0661 17.6361 20.0511 17.6361 20.0362V19.7081C17.6361 19.6932 17.6435 19.6857 17.651 19.6708C17.6584 19.6634 17.6734 19.6559 17.6883 19.6559H18.0164C18.0313 19.6559 18.0388 19.6634 18.0537 19.6708C18.0611 19.6783 18.0686 19.6932 18.0686 19.7081V20.0362C18.0686 20.0511 18.0611 20.0586 18.0537 20.0735C18.0462 20.081 18.0313 20.0884 18.0164 20.0884H17.6883C17.6734 20.0884 17.6659 20.081 17.651 20.0735Z" fill="white"/>
        <path d="M18.4862 19.984C18.3744 19.902 18.3147 19.7752 18.3073 19.6037C18.3073 19.5664 18.3073 19.5142 18.3073 19.4396C18.3073 19.3651 18.3073 19.3054 18.3073 19.2681C18.3147 19.1041 18.3744 18.9773 18.4862 18.8878C18.5981 18.8058 18.7472 18.761 18.9337 18.761C19.0455 18.761 19.1499 18.7759 19.2469 18.8132C19.3438 18.8505 19.4184 18.9027 19.478 18.9698C19.5377 19.0444 19.5675 19.1339 19.5675 19.2383C19.5675 19.2458 19.5601 19.2607 19.5526 19.2681C19.5452 19.2756 19.5377 19.283 19.5228 19.283H19.1425C19.1201 19.283 19.1052 19.2756 19.0977 19.2681C19.0903 19.2607 19.0828 19.2458 19.0754 19.2234C19.0604 19.1861 19.0455 19.1563 19.0232 19.1414C19.0008 19.1264 18.971 19.119 18.9337 19.119C18.8889 19.119 18.8591 19.1339 18.8293 19.1563C18.8069 19.1786 18.792 19.2159 18.792 19.2756C18.792 19.3129 18.792 19.3576 18.792 19.4322C18.792 19.4993 18.792 19.5515 18.792 19.5888C18.792 19.641 18.8069 19.6857 18.8293 19.7081C18.8516 19.7305 18.8889 19.7454 18.9337 19.7454C19.0082 19.7454 19.053 19.7081 19.0754 19.641C19.0828 19.6186 19.0903 19.6037 19.0977 19.5962C19.1052 19.5888 19.1201 19.5813 19.1425 19.5813H19.5228C19.5377 19.5813 19.5452 19.5888 19.5526 19.5962C19.5601 19.6037 19.5675 19.6112 19.5675 19.6261C19.5675 19.7379 19.5377 19.8274 19.478 19.8945C19.4184 19.9691 19.3438 20.0213 19.2469 20.0511C19.1499 20.0884 19.0455 20.1033 18.9337 20.1033C18.7472 20.1033 18.5981 20.0661 18.4862 19.984Z" fill="white"/>
        <path d="M19.9553 19.9766C19.8434 19.8871 19.7838 19.7678 19.7763 19.6037C19.7763 19.5664 19.7763 19.5142 19.7763 19.4396C19.7763 19.3651 19.7763 19.3054 19.7763 19.2756C19.7763 19.1712 19.8061 19.0742 19.8583 18.9997C19.9105 18.9251 19.9851 18.8654 20.0746 18.8207C20.1641 18.7834 20.2759 18.761 20.3953 18.761C20.5146 18.761 20.6264 18.7834 20.7159 18.8207C20.8054 18.858 20.88 18.9176 20.9322 18.9997C20.9844 19.0742 21.0142 19.1712 21.0142 19.2756C21.0142 19.3427 21.0142 19.4024 21.0142 19.4396C21.0142 19.4844 21.0142 19.5366 21.0142 19.6037C21.0068 19.7678 20.9471 19.8945 20.8352 19.9766C20.7234 20.0661 20.5742 20.1033 20.3878 20.1033C20.2088 20.1033 20.0597 20.0661 19.9553 19.9766ZM20.4997 19.7006C20.522 19.6783 20.537 19.641 20.537 19.5888C20.537 19.5142 20.537 19.462 20.537 19.4322C20.537 19.3949 20.537 19.3427 20.537 19.2756C20.537 19.2234 20.522 19.1861 20.4997 19.1637C20.4773 19.1414 20.44 19.1264 20.4027 19.1264C20.358 19.1264 20.3281 19.1414 20.3058 19.1637C20.2834 19.1861 20.2685 19.2234 20.2685 19.2756C20.2685 19.3129 20.2685 19.3576 20.2685 19.4322C20.2685 19.4993 20.2685 19.5515 20.2685 19.5888C20.2685 19.641 20.2834 19.6783 20.3058 19.7006C20.3281 19.723 20.3654 19.7379 20.4027 19.7379C20.44 19.7379 20.4773 19.7305 20.4997 19.7006Z" fill="white"/>
        <path d="M21.3051 20.0735C21.2976 20.0661 21.2902 20.0511 21.2902 20.0362V18.8281C21.2902 18.8132 21.2976 18.8058 21.3051 18.7909C21.3125 18.7834 21.3274 18.7759 21.3424 18.7759H21.6407C21.6779 18.7759 21.7003 18.7909 21.7227 18.8281L21.9911 19.2756L22.2596 18.8281C22.282 18.7909 22.3044 18.7759 22.3416 18.7759H22.6399C22.6548 18.7759 22.6623 18.7834 22.6772 18.7909C22.6847 18.7983 22.6921 18.8132 22.6921 18.8281V20.0362C22.6921 20.0511 22.6847 20.0586 22.6772 20.0735C22.6698 20.081 22.6548 20.0884 22.6399 20.0884H22.3044C22.2894 20.0884 22.282 20.081 22.2671 20.0735C22.2596 20.0661 22.2522 20.0511 22.2522 20.0362V19.5217L22.1254 19.723C22.1179 19.7379 22.1105 19.7454 22.0956 19.7603C22.0881 19.7678 22.0732 19.7752 22.0583 19.7752H21.924C21.9091 19.7752 21.8942 19.7678 21.8867 19.7603C21.8793 19.7529 21.8644 19.7379 21.8569 19.723L21.7301 19.5217V20.0362C21.7301 20.0511 21.7227 20.0586 21.7152 20.0735C21.7078 20.081 21.6929 20.0884 21.6779 20.0884H21.3424C21.3274 20.0884 21.3125 20.081 21.3051 20.0735Z" fill="white"/>
      </g>
    </g>
  </g>
  <defs>
    <clipPath id="clip0_3_125">
      <rect width="28" height="28" fill="white"/>
    </clipPath>
  </defs>
</svg>