<svg xmlns="http://www.w3.org/2000/svg" width="28" height="28" viewBox="0 0 28 28" fill="none">
  <g clip-path="url(#clip0_7_236)">
    <mask id="mask0_7_236" style="mask-type:luminance" maskUnits="userSpaceOnUse" x="0" y="0" width="28" height="28">
      <path d="M28 14C28 6.26801 21.732 0 14 0C6.26801 0 0 6.26801 0 14C0 21.732 6.26801 28 14 28C21.732 28 28 21.732 28 14Z" fill="white"/>
    </mask>
    <g mask="url(#mask0_7_236)">
      <path d="M28 14C28 6.26801 21.732 0 14 0C6.26801 0 0 6.26801 0 14C0 21.732 6.26801 28 14 28C21.732 28 28 21.732 28 14Z" fill="white"/>
      <mask id="mask1_7_236" style="mask-type:luminance" maskUnits="userSpaceOnUse" x="-2" y="-2" width="32" height="32">
        <path d="M-2 -2H30V30H-2V-2Z" fill="white"/>
      </mask>
      <g mask="url(#mask1_7_236)">
        <path d="M9.01871 21.1965C10.8097 19.5185 11.7967 17.2871 11.7967 14.9149V11.2436C11.7967 11.1827 11.8225 11.1243 11.8683 11.0813C11.9142 11.0383 11.9764 11.0141 12.0413 11.0141C12.1062 11.0141 12.1684 11.0383 12.2143 11.0813C12.2602 11.1243 12.286 11.1827 12.286 11.2436C12.286 13.6163 13.2718 15.8482 15.0624 17.5257L20.9769 23.0657C21.002 23.0892 21.0214 23.1175 21.0337 23.1488C21.046 23.18 21.0509 23.2134 21.048 23.2466C21.0453 23.2801 21.0347 23.3126 21.0171 23.3418C20.9994 23.371 20.9752 23.3962 20.946 23.4155C18.9003 24.7795 16.4982 25.5 13.9998 25.5C11.5015 25.5 9.09851 24.7795 7.05284 23.4155C7.02367 23.3963 6.99951 23.3711 6.98216 23.3418C6.96481 23.3126 6.95472 23.2801 6.95264 23.2466C6.94899 23.2136 6.95321 23.1803 6.96499 23.149C6.97676 23.1177 6.99581 23.0892 7.02074 23.0657L9.01871 21.1965ZM19.6326 7.57452V4.7301C19.6323 4.68971 19.6435 4.64997 19.6649 4.61493C19.6864 4.57989 19.7173 4.55079 19.7546 4.53061C19.7919 4.51042 19.8342 4.49986 19.8773 4.5C19.9204 4.50014 19.9626 4.51097 19.9998 4.5314C23.7008 6.53875 26 10.2658 26 14.2586C26 14.5783 25.982 14.9206 25.9436 15.305C25.934 15.3928 25.8716 15.4683 25.7825 15.5004C25.7555 15.5082 25.7274 15.5124 25.6991 15.5128C25.6346 15.5128 25.5727 15.4889 25.5269 15.4463L21.4038 11.583C20.8405 11.0581 20.394 10.4334 20.09 9.74533C19.786 9.05723 19.6307 8.31937 19.6329 7.57452H19.6326ZM8.00082 4.5314C8.03796 4.51101 8.0802 4.50027 8.12322 4.50027C8.16624 4.50027 8.20849 4.51101 8.24562 4.5314C8.28272 4.55162 8.31354 4.58061 8.33501 4.61546C8.35649 4.65032 8.36786 4.68984 8.36802 4.7301V14.9149C8.36802 16.4286 7.73713 17.8525 6.59474 18.9235L4.59827 20.7952C4.55224 20.8385 4.48976 20.8629 4.42457 20.863C4.41797 20.863 4.41077 20.863 4.40357 20.8616C4.36811 20.8584 4.33375 20.8483 4.30271 20.8319C4.27166 20.8155 4.2446 20.7932 4.22327 20.7664C2.76889 18.8489 2 16.5989 2 14.2583C2 10.2658 4.29797 6.53875 8.00082 4.5314ZM17.4867 15.253L23.4011 20.7952C23.4239 20.8167 23.4509 20.8337 23.4807 20.8454C23.5106 20.857 23.5425 20.863 23.5748 20.863C23.5811 20.863 23.588 20.863 23.5943 20.8616C23.6296 20.8586 23.6639 20.8486 23.6947 20.8322C23.7256 20.8158 23.7523 20.7934 23.7731 20.7664C24.1034 20.3327 24.4003 19.8775 24.6617 19.4042C24.6855 19.3606 24.6939 19.311 24.6859 19.2626C24.6778 19.2143 24.6536 19.1695 24.6167 19.1348L18.9789 13.8547C17.1888 12.1758 16.203 9.94608 16.203 7.57452C16.2008 7.51503 16.1741 7.45868 16.1284 7.41734C16.0828 7.37599 16.0218 7.35289 15.9584 7.35289C15.8949 7.35289 15.834 7.37599 15.7883 7.41734C15.7427 7.45868 15.7159 7.51503 15.7137 7.57452V11.2436C15.7137 12.7578 16.3428 14.182 17.4867 15.253Z" fill="#525DDC"/>
      </g>
    </g>
  </g>
  <defs>
    <clipPath id="clip0_7_236">
      <rect width="28" height="28" fill="white"/>
    </clipPath>
  </defs>
</svg>