<svg xmlns="http://www.w3.org/2000/svg" width="28" height="28" viewBox="0 0 28 28" fill="none">
  <g clip-path="url(#clip0_9_247)">
    <mask id="mask0_9_247" style="mask-type:luminance" maskUnits="userSpaceOnUse" x="0" y="0" width="28" height="28">
      <path d="M28 14C28 6.26801 21.732 0 14 0C6.26801 0 0 6.26801 0 14C0 21.732 6.26801 28 14 28C21.732 28 28 21.732 28 14Z" fill="white"/>
    </mask>
    <g mask="url(#mask0_9_247)">
      <path d="M28 14C28 6.26801 21.732 0 14 0C6.26801 0 0 6.26801 0 14C0 21.732 6.26801 28 14 28C21.732 28 28 21.732 28 14Z" fill="white"/>
      <mask id="mask1_9_247" style="mask-type:luminance" maskUnits="userSpaceOnUse" x="-2" y="-2" width="32" height="32">
        <path d="M-2 -2H30V30H-2V-2Z" fill="white"/>
      </mask>
      <g mask="url(#mask1_9_247)">
        <path d="M17.0983 15.3634C16.8488 15.3434 16.6298 15.5294 16.6097 15.7791C16.6056 15.8299 16.6012 15.8806 16.5967 15.931C16.5743 16.1806 16.7584 16.401 17.0079 16.4234C17.0217 16.4246 17.0354 16.4252 17.049 16.4252C17.2811 16.4252 17.479 16.2478 17.5002 16.0121C17.505 15.9589 17.5096 15.9056 17.5139 15.8519C17.534 15.6023 17.348 15.3836 17.0983 15.3634Z" fill="#0093CB"/>
        <path d="M11.2128 7.55657C10.4938 7.55657 9.90892 8.1415 9.90892 8.86041C9.90892 9.57936 10.4938 10.1643 11.2128 10.1643C11.9318 10.1643 12.5167 9.57936 12.5167 8.86041C12.5167 8.1415 11.9318 7.55657 11.2128 7.55657ZM11.2128 9.2571C10.9941 9.2571 10.8162 9.07916 10.8162 8.86041C10.8162 8.64166 10.9941 8.46377 11.2128 8.46377C11.4316 8.46377 11.6095 8.64166 11.6095 8.86041C11.6095 9.07916 11.4316 9.2571 11.2128 9.2571Z" fill="#0093CB"/>
        <path d="M16.7872 7.55657C16.0683 7.55657 15.4834 8.1415 15.4834 8.86041C15.4834 9.57936 16.0683 10.1643 16.7872 10.1643C17.5062 10.1643 18.0911 9.57936 18.0911 8.86041C18.0911 8.1415 17.5061 7.55657 16.7872 7.55657ZM16.7872 9.2571C16.5685 9.2571 16.3906 9.07916 16.3906 8.86041C16.3906 8.64166 16.5685 8.46377 16.7872 8.46377C17.0059 8.46377 17.1839 8.64166 17.1839 8.86041C17.1839 9.07916 17.0059 9.2571 16.7872 9.2571Z" fill="#0093CB"/>
        <path d="M19.8778 21.6079H16.6337C18.5277 20.2148 19.7522 17.3914 19.7522 14.254C19.7522 13.3456 19.651 12.455 19.4514 11.604C19.8341 10.7971 20.0281 9.93136 20.0281 9.02803C20.0281 8.56715 19.9753 8.1094 19.8724 7.66588C19.8686 7.63726 19.8624 7.6086 19.8529 7.58025C19.8518 7.57715 19.8507 7.57397 19.8497 7.57101C19.5323 6.29247 18.7886 5.13511 17.7522 4.3099C16.6761 3.45293 15.3786 3 14 3C12.622 3 11.3248 3.45272 10.2487 4.30926C9.20784 5.13778 8.46177 6.30098 8.14668 7.5848C8.14445 7.59279 8.14256 7.60078 8.1408 7.60878C8.02895 8.06931 7.97202 8.5467 7.97202 9.02803C7.97202 9.93149 8.16602 10.7971 8.5487 11.6039C8.34911 12.455 8.24788 13.3456 8.24788 14.254C8.24788 17.3915 9.4724 20.2148 11.3665 21.6079H8.12232C7.87181 21.6079 7.6687 21.811 7.6687 22.0615C7.6687 22.3121 7.87177 22.5152 8.12232 22.5152H11.544L11.2367 23.3678C11.1022 23.7407 11.1578 24.157 11.3857 24.4815C11.6137 24.8061 11.9865 25 12.3831 25H15.6169C16.0135 25 16.3864 24.8061 16.6143 24.4815C16.8422 24.157 16.8979 23.7407 16.7633 23.368L16.456 22.5151H19.8777C20.1282 22.5151 20.3313 22.3121 20.3313 22.0615C20.3314 21.811 20.1283 21.6079 19.8778 21.6079ZM14 3.9072C15.4693 3.9072 16.8135 4.52461 17.7565 5.54134C17.448 5.44432 17.1219 5.39224 16.7872 5.39224C15.9218 5.39224 15.1079 5.72915 14.4952 6.34133C14.302 6.53469 14.1364 6.7482 14 6.97701C13.8635 6.74811 13.6978 6.53452 13.5045 6.34099C12.8921 5.72915 12.0782 5.39219 11.2128 5.39219C10.878 5.39219 10.5519 5.44427 10.2434 5.54134C11.1865 4.52466 12.5307 3.9072 14 3.9072ZM9.01964 7.83479C9.35436 6.91565 10.2327 6.29948 11.2128 6.29948C11.8361 6.29948 12.4223 6.54216 12.8631 6.98251C13.3037 7.42362 13.5464 8.00976 13.5464 8.63306V10.5895C13.5464 10.84 13.7495 11.0431 14 11.0431C14.2505 11.0431 14.4537 10.84 14.4537 10.5895V8.63306C14.4537 8.00976 14.6964 7.42362 15.1367 6.98285C15.5779 6.54216 16.164 6.29948 16.7873 6.29948C17.7682 6.29948 18.6467 6.91642 18.9809 7.83681C19.0736 8.2237 19.1209 8.6243 19.1209 9.02807C19.1209 9.84448 18.9348 10.6242 18.5677 11.3457C18.1738 12.1206 17.5839 12.7878 16.8615 13.2751C16.0152 13.8464 15.0258 14.1483 14.0001 14.1483C12.9744 14.1483 11.985 13.8464 11.1386 13.275C10.4168 12.788 9.8271 12.1213 9.43308 11.3468C9.43067 11.3422 9.42865 11.3374 9.42616 11.333C9.06338 10.6151 8.87926 9.83975 8.87926 9.02807C8.87921 8.62318 8.92657 8.22215 9.01964 7.83479ZM10.1318 18.6668C9.49285 17.3841 9.15503 15.8581 9.15503 14.254C9.15503 13.7444 9.19061 13.2418 9.25871 12.7498C9.5943 13.1767 9.98716 13.558 10.4257 13.8814C10.4234 14.0085 10.4221 14.1321 10.4221 14.254C10.4221 16.3777 10.7537 18.3858 11.3557 19.9084C11.4774 20.2162 11.6084 20.4986 11.7477 20.755C11.1202 20.248 10.5626 19.5315 10.1318 18.6668ZM13.5464 24.0928H12.3831C12.237 24.0928 12.1561 24 12.1281 23.9602C12.1002 23.9204 12.0405 23.8129 12.09 23.6757L12.5083 22.5152H13.5464L13.5464 24.0928ZM15.8719 23.9602C15.8439 24 15.763 24.0928 15.617 24.0928H14.4536V22.5152H15.4917L15.91 23.6759C15.9595 23.813 15.8998 23.9204 15.8719 23.9602ZM16.2545 20.7531C16.7376 19.8652 17.1163 18.6722 17.3467 17.2435C17.3866 16.9962 17.2185 16.7634 16.9711 16.7235C16.7238 16.6836 16.491 16.8517 16.4511 17.099C16.0281 19.7218 15.0308 21.5758 14.0241 21.6077C14.0162 21.608 14.0079 21.6079 14 21.6079C13.9921 21.6079 13.9838 21.608 13.974 21.6077C12.7405 21.5686 11.3683 18.6222 11.3302 14.4326C12.1559 14.8413 13.0651 15.0555 13.9999 15.0555C14.9348 15.0555 15.844 14.8413 16.6697 14.4326C16.669 14.5052 16.6681 14.5776 16.6666 14.6493C16.6614 14.8997 16.8603 15.107 17.1108 15.1121C17.1139 15.1121 17.1171 15.1122 17.1203 15.1122C17.3664 15.1122 17.5685 14.9151 17.5736 14.6679C17.5764 14.5315 17.5778 14.3922 17.5778 14.254C17.5778 14.1338 17.5765 14.0089 17.5742 13.8814C18.0128 13.5579 18.4056 13.1766 18.7412 12.7498C18.8094 13.2418 18.8449 13.7444 18.8449 14.2539C18.8449 15.8581 18.5071 17.384 17.8681 18.6668C17.438 19.5304 16.8811 20.2463 16.2545 20.7531Z" fill="#0093CB"/>
      </g>
    </g>
  </g>
  <defs>
    <clipPath id="clip0_9_247">
      <rect width="28" height="28" fill="white"/>
    </clipPath>
  </defs>
</svg>